# SSTK version 0.8.0
# 10
mtllib original-10.mtl
o mesh7/mesh7-geometry#mesh7-geometry
v -0.272629 -0.916908 -0.236467
v -0.242364 -0.916908 -0.246467
v -0.240422 -0.916908 -0.236467
v -0.247957 -0.916908 -0.255261
v -0.242364 -0.912035 -0.246467
v -0.242364 -0.916908 -0.226467
v -0.256526 -0.916908 -0.261788
v -0.247957 -0.912035 -0.255261
v -0.240422 -0.912035 -0.236467
v -0.247956 -0.916908 -0.217673
v -0.267037 -0.916908 -0.265260
v -0.256526 -0.912035 -0.261788
v -0.242364 -0.907162 -0.246467
v -0.247957 -0.907162 -0.255261
v -0.256525 -0.916908 -0.211146
v -0.242364 -0.912035 -0.226467
v -0.278222 -0.916908 -0.265260
v -0.267037 -0.912035 -0.265260
v -0.256526 -0.907162 -0.261788
v -0.240422 -0.907162 -0.236467
v -0.267036 -0.916908 -0.207673
v -0.247956 -0.912035 -0.217673
v -0.288733 -0.916908 -0.261787
v -0.278222 -0.912035 -0.265260
v -0.267037 -0.907162 -0.265260
v -0.272629 -0.907162 -0.236467
v -0.278221 -0.916908 -0.207673
v -0.256525 -0.912035 -0.211146
v -0.242364 -0.907162 -0.226467
v -0.297302 -0.916908 -0.255260
v -0.288733 -0.912035 -0.261787
v -0.278222 -0.907162 -0.265260
v -0.288732 -0.916908 -0.211146
v -0.267036 -0.912035 -0.207673
v -0.247956 -0.907162 -0.217673
v -0.302894 -0.916908 -0.246466
v -0.297302 -0.912035 -0.255260
v -0.288733 -0.907162 -0.261787
v -0.278221 -0.912035 -0.207673
v -0.297301 -0.916908 -0.217673
v -0.256525 -0.907162 -0.211146
v -0.304836 -0.916908 -0.236466
v -0.302894 -0.912035 -0.246466
v -0.297302 -0.907162 -0.255260
v -0.288732 -0.912035 -0.211146
v -0.302894 -0.916908 -0.226466
v -0.267036 -0.907162 -0.207673
v -0.304836 -0.912035 -0.236466
v -0.302894 -0.907162 -0.246466
v -0.278221 -0.907162 -0.207673
v -0.297301 -0.912035 -0.217673
v -0.302894 -0.912035 -0.226466
v -0.304836 -0.907162 -0.236466
v -0.288732 -0.907162 -0.211146
v -0.302894 -0.907162 -0.226466
v -0.297301 -0.907162 -0.217673
vn 0 -1 0
vn 0.9816499207985241 0 -0.1906919846145901
vn 0.8437952850973801 0 -0.536665181325779
vn 0.9816497336009129 -0.0000029999991858209888 -0.19069294824994562
vn 0.9816580729013672 -0.000003000000222832858 0.19065001415833766
vn 0.6059419162451991 0 -0.7955088900427801
vn 0.9816497336053306 0 -0.19069294825080377
vn 0.8438158234125717 0 0.5366328876975055
vn 0.9816578857522077 0 0.19065097781156362
vn 0.3137168604935938 0 -0.9495165777605165
vn 0.6059419162376248 -0.000004999999308648504 -0.7955088900328362
vn 0.6059430311112366 0 -0.7955080408441682
vn 0.6059748500572989 0 0.7954838031651142
vn -0.00001799999999730605 0 -1
vn 0.31371415574013706 -0.0000060000029784283816 -0.9495174713780958
vn 0 1 0
vn 0.3137468865714226 0 0.94950665672587
vn -0.31374808603914967 0 -0.9495062603831373
vn 0.00001799999999730605 0 1
vn -0.6059731024234004 0 -0.7954851344552951
vn -0.3137141557457839 0 0.949517471395187
vn -0.8438162762317416 0 -0.5366321756719376
vn -0.3137159589104273 0.000002999999606858242 0.9495168756351364
vn -0.6059430311100248 0.00000200000010250637 0.7955080408425773
vn -0.9816578857522077 0 -0.19065097781156362
vn -0.6059419162451991 0 0.7955088900427801
vn -0.8437952850973801 0 0.536665181325779
vn 0.000016999999997689043 0.0000029999999993309554 1
vn -0.9816497336053306 0 0.19069294825080377
vn -0.9816499207985241 0 0.1906919846145901
vn -0.9816497336009129 0.0000029999991858209888 0.19069294824994562
vn -0.9816580729013672 0.000003000000222832858 -0.19065001415833766
vn -0.8438158234125717 0 -0.5366328876975055
vn -0.3137168604935938 0 0.9495165777605165
vn -0.6059419162376248 0.000004999999308648504 0.7955088900328362
vn -0.6059430311112366 0 0.7955080408441682
vn -0.6059748500572989 0 -0.7954838031651142
vn -0.31371415574013706 0.0000060000029784283816 0.9495174713780958
vn -0.3137468865714226 0 -0.94950665672587
vn 0.31374808603914967 0 0.9495062603831373
vn 0.6059731024234004 0 0.7954851344552951
vn 0.3137141557457839 0 -0.949517471395187
vn 0.8438162762317416 0 0.5366321756719376
vn 0.3137159589104273 -0.000002999999606858242 -0.9495168756351364
vn 0.6059430311100248 -0.00000200000010250637 -0.7955080408425773
vn -0.000016999999997689043 -0.0000029999999993309554 -1
usemtl material_0_0
f 1//1 2//1 3//1
f 1//1 4//1 2//1
f 5//2 3//2 2//2
f 6//1 1//1 3//1
f 1//1 7//1 4//1
f 8//3 2//3 4//3
f 9//4 3//4 5//4
f 5//3 2//3 8//3
f 10//1 1//1 6//1
f 9//5 6//5 3//5
f 1//1 11//1 7//1
f 4//6 7//6 12//6
f 4//6 12//6 8//6
f 13//7 9//7 5//7
f 14//3 5//3 8//3
f 15//1 1//1 10//1
f 16//8 10//8 6//8
f 16//9 6//9 9//9
f 1//1 17//1 11//1
f 7//10 11//10 18//10
f 7//10 18//10 12//10
f 8//11 12//11 19//11
f 20//7 9//7 13//7
f 13//3 5//3 14//3
f 8//12 19//12 14//12
f 21//1 1//1 15//1
f 22//13 15//13 10//13
f 22//8 10//8 16//8
f 20//9 16//9 9//9
f 1//1 23//1 17//1
f 11//14 17//14 24//14
f 11//14 24//14 18//14
f 12//10 18//10 25//10
f 12//15 25//15 19//15
f 26//16 20//16 13//16
f 26//16 13//16 14//16
f 26//16 14//16 19//16
f 27//1 1//1 21//1
f 28//17 21//17 15//17
f 22//13 28//13 15//13
f 29//8 22//8 16//8
f 29//9 16//9 20//9
f 1//1 30//1 23//1
f 17//18 23//18 31//18
f 17//18 31//18 24//18
f 18//14 24//14 32//14
f 18//14 32//14 25//14
f 26//16 19//16 25//16
f 29//16 20//16 26//16
f 27//1 33//1 1//1
f 34//19 27//19 21//19
f 28//17 34//17 21//17
f 35//13 28//13 22//13
f 35//8 22//8 29//8
f 1//1 36//1 30//1
f 23//20 30//20 37//20
f 23//20 37//20 31//20
f 24//18 31//18 38//18
f 24//18 38//18 32//18
f 26//16 25//16 32//16
f 35//16 29//16 26//16
f 39//21 33//21 27//21
f 33//1 40//1 1//1
f 34//19 39//19 27//19
f 41//17 34//17 28//17
f 35//13 41//13 28//13
f 42//1 36//1 1//1
f 43//22 30//22 36//22
f 43//22 37//22 30//22
f 31//20 37//20 44//20
f 31//20 44//20 38//20
f 26//16 32//16 38//16
f 41//16 35//16 26//16
f 39//23 45//23 33//23
f 45//24 40//24 33//24
f 40//1 46//1 1//1
f 47//19 39//19 34//19
f 41//17 47//17 34//17
f 48//25 36//25 42//25
f 46//1 42//1 1//1
f 48//25 43//25 36//25
f 49//22 37//22 43//22
f 49//22 44//22 37//22
f 26//16 38//16 44//16
f 47//16 41//16 26//16
f 50//23 45//23 39//23
f 45//26 51//26 40//26
f 51//27 46//27 40//27
f 47//28 50//28 39//28
f 52//29 48//29 42//29
f 52//29 42//29 46//29
f 53//25 43//25 48//25
f 53//25 49//25 43//25
f 26//16 44//16 49//16
f 50//16 47//16 26//16
f 50//21 54//21 45//21
f 54//26 51//26 45//26
f 51//27 52//27 46//27
f 55//29 48//29 52//29
f 55//29 53//29 48//29
f 53//16 26//16 49//16
f 50//16 26//16 54//16
f 54//26 56//26 51//26
f 56//27 52//27 51//27
f 56//27 55//27 52//27
f 55//16 26//16 53//16
f 54//16 26//16 56//16
f 56//16 26//16 55//16
usemtl material_1_0
f 3//16 2//16 1//16
f 2//16 4//16 1//16
f 2//30 3//30 5//30
f 3//16 1//16 6//16
f 4//16 7//16 1//16
f 4//27 2//27 8//27
f 5//31 3//31 9//31
f 8//27 2//27 5//27
f 6//16 1//16 10//16
f 3//32 6//32 9//32
f 7//16 11//16 1//16
f 12//26 7//26 4//26
f 8//26 12//26 4//26
f 5//29 9//29 13//29
f 8//27 5//27 14//27
f 10//16 1//16 15//16
f 6//33 10//33 16//33
f 9//25 6//25 16//25
f 11//16 17//16 1//16
f 18//34 11//34 7//34
f 12//34 18//34 7//34
f 19//35 12//35 8//35
f 13//29 9//29 20//29
f 14//27 5//27 13//27
f 14//36 19//36 8//36
f 15//16 1//16 21//16
f 10//37 15//37 22//37
f 16//33 10//33 22//33
f 9//25 16//25 20//25
f 17//16 23//16 1//16
f 24//19 17//19 11//19
f 18//19 24//19 11//19
f 25//34 18//34 12//34
f 19//38 25//38 12//38
f 13//1 20//1 26//1
f 14//1 13//1 26//1
f 19//1 14//1 26//1
f 21//16 1//16 27//16
f 15//39 21//39 28//39
f 15//37 28//37 22//37
f 16//33 22//33 29//33
f 20//25 16//25 29//25
f 23//16 30//16 1//16
f 31//40 23//40 17//40
f 24//40 31//40 17//40
f 32//19 24//19 18//19
f 25//19 32//19 18//19
f 25//1 19//1 26//1
f 26//1 20//1 29//1
f 1//16 33//16 27//16
f 21//14 27//14 34//14
f 21//39 34//39 28//39
f 22//37 28//37 35//37
f 29//33 22//33 35//33
f 30//16 36//16 1//16
f 37//41 30//41 23//41
f 31//41 37//41 23//41
f 38//40 31//40 24//40
f 32//40 38//40 24//40
f 32//1 25//1 26//1
f 26//1 29//1 35//1
f 27//42 33//42 39//42
f 1//16 40//16 33//16
f 27//14 39//14 34//14
f 28//39 34//39 41//39
f 28//37 41//37 35//37
f 1//16 36//16 42//16
f 36//43 30//43 43//43
f 30//43 37//43 43//43
f 44//41 37//41 31//41
f 38//41 44//41 31//41
f 38//1 32//1 26//1
f 26//1 35//1 41//1
f 33//44 45//44 39//44
f 33//45 40//45 45//45
f 1//16 46//16 40//16
f 34//14 39//14 47//14
f 34//39 47//39 41//39
f 42//9 36//9 48//9
f 1//16 42//16 46//16
f 36//9 43//9 48//9
f 43//43 37//43 49//43
f 37//43 44//43 49//43
f 44//1 38//1 26//1
f 26//1 41//1 47//1
f 39//44 45//44 50//44
f 40//6 51//6 45//6
f 40//3 46//3 51//3
f 39//46 50//46 47//46
f 42//7 48//7 52//7
f 46//7 42//7 52//7
f 48//9 43//9 53//9
f 43//9 49//9 53//9
f 49//1 44//1 26//1
f 26//1 47//1 50//1
f 45//42 54//42 50//42
f 45//6 51//6 54//6
f 46//3 52//3 51//3
f 52//7 48//7 55//7
f 48//7 53//7 55//7
f 49//1 26//1 53//1
f 54//1 26//1 50//1
f 51//6 56//6 54//6
f 51//3 52//3 56//3
f 52//3 55//3 56//3
f 53//1 26//1 55//1
f 56//1 26//1 54//1
f 55//1 26//1 56//1
