# SSTK version 0.8.0
# 12
mtllib original-12.mtl
o mesh8/mesh8-geometry#mesh8-geometry
v 0.264158 -0.907162 -0.236476
v 0.284335 -0.907162 -0.243143
v 0.285630 -0.907162 -0.236476
v 0.280606 -0.907162 -0.249005
v 0.284335 -0.887670 -0.243143
v 0.284335 -0.907162 -0.229810
v 0.274894 -0.907162 -0.253357
v 0.280606 -0.887670 -0.249005
v 0.285630 -0.887670 -0.236476
v 0.280607 -0.907162 -0.223947
v 0.267886 -0.907162 -0.255672
v 0.274894 -0.887670 -0.253357
v 0.284335 -0.868179 -0.243143
v 0.280606 -0.868179 -0.249005
v 0.274894 -0.907162 -0.219596
v 0.284335 -0.887670 -0.229810
v 0.260429 -0.907162 -0.255672
v 0.267886 -0.887670 -0.255672
v 0.274894 -0.868179 -0.253357
v 0.285630 -0.868179 -0.236476
v 0.267887 -0.907162 -0.217280
v 0.280607 -0.887670 -0.223947
v 0.253422 -0.907162 -0.253356
v 0.260429 -0.887670 -0.255672
v 0.267886 -0.868179 -0.255672
v 0.264158 -0.868179 -0.236476
v 0.260430 -0.907162 -0.217280
v 0.274894 -0.887670 -0.219596
v 0.284335 -0.868179 -0.229810
v 0.247710 -0.907162 -0.249005
v 0.253422 -0.887670 -0.253356
v 0.260429 -0.868179 -0.255672
v 0.253423 -0.907162 -0.219595
v 0.267887 -0.887670 -0.217280
v 0.280607 -0.868179 -0.223947
v 0.243981 -0.907162 -0.243142
v 0.247710 -0.887670 -0.249005
v 0.253422 -0.868179 -0.253356
v 0.260430 -0.887670 -0.217280
v 0.247710 -0.907162 -0.223947
v 0.274894 -0.868179 -0.219596
v 0.242687 -0.907162 -0.236476
v 0.243981 -0.887670 -0.243142
v 0.247710 -0.868179 -0.249005
v 0.253423 -0.887670 -0.219595
v 0.243982 -0.907162 -0.229809
v 0.267887 -0.868179 -0.217280
v 0.242687 -0.887670 -0.236476
v 0.243981 -0.868179 -0.243142
v 0.260430 -0.868179 -0.217280
v 0.247710 -0.887670 -0.223947
v 0.243982 -0.887670 -0.229809
v 0.242687 -0.868179 -0.236476
v 0.253423 -0.868179 -0.219595
v 0.243982 -0.868179 -0.229809
v 0.247710 -0.868179 -0.223947
vn 0 -1 0
vn 0.9816499207985241 0 -0.1906919846145901
vn 0.84379483226162 0 -0.5366658933159296
vn 0.9816580729057844 0 0.19065001415919555
vn 0.6059419162451991 0 -0.7955088900427801
vn 0.8437948322611981 -9.999998010898956e-7 -0.5366658933156613
vn 0.8438158234125717 0 0.5366328876975055
vn 0.3137168604935938 0 -0.9495165777605165
vn 0.6059419162439872 -0.000001999999723374419 -0.7955088900411892
vn 0.981649135655085 -0.0000010000001381486857 -0.1906960263524766
vn 0.8437960259416653 0 -0.536664016499199
vn 0.6059441459762038 -0.000001000000240730449 -0.7955071916432742
vn 0.6059737352195315 0 0.7954846524126592
vn 0.8438165642055632 0 0.53663172285313
vn 0.9816580729052938 -0.0000010000000743098413 0.19065001415910024
vn -0.000018999999996783044 -9.999999995969552e-7 -1
vn -0.000014999999998534545 0 -1
vn 0.3137120547000933 -0.000002000000348517256 -0.9495181655618
vn 0 1 0
vn 0.3137450834444381 0.0000010000002657517733 0.9495072525333562
vn 0.6059719875833313 9.999999793328674e-7 0.7954859837000946
vn 0.981657287937304 0 0.19065405592217907
vn -0.31374508344459495 0 -0.949507252533831
vn -0.31374808603899285 -0.0000010000002740187803 -0.9495062603826627
vn 0.000018999999996792545 0 1
vn 0.31374808603914967 0 0.9495062603831373
vn 0.6059719875836341 0 0.7954859837004922
vn -0.6059737352195315 0 -0.7954846524126592
vn -0.31374808603914967 0 -0.9495062603831373
vn -0.3137168604935938 0 0.9495165777605165
vn -0.8438158234125717 0 -0.5366328876975055
vn -0.6059419162451991 0 0.7955088900427801
vn 0.31374988916222396 0 0.9495056645700921
vn -0.9816580729057844 0 -0.19065001415919555
vn -0.8438158234121498 -9.99999790607909e-7 -0.5366328876972372
vn -0.8438146297975078 0 -0.5366347645649643
vn -0.3137168604929664 0.0000019999991104077577 0.9495165777586174
vn -0.84379483226162 0 0.5366658933159296
vn 0.000014999999998527046 9.999999996649554e-7 1
vn -0.9816499207985241 0 0.1906919846145901
vn -0.3137120547007207 0 0.949518165563699
vn -0.9816501079908434 0 0.19069102097782525
vn -0.6059441459762038 0.000001000000240730449 0.7955071916432742
vn -0.8437948322611981 9.999998010898956e-7 0.5366658933156613
vn -0.843792897728088 0 0.5366689349530459
vn -0.6059419162439872 0.000001999999723374419 0.7955088900411892
vn -0.981649135655085 0.0000010000001381486857 0.1906960263524766
vn -0.8437960259416653 0 0.536664016499199
vn -0.8438165642055632 0 -0.53663172285313
vn -0.9816580729052938 0.0000010000000743098413 -0.19065001415910024
vn 0.000018999999996783044 9.999999995969552e-7 1
vn 0.000014999999998534545 0 1
vn -0.3137120547000933 0.000002000000348517256 0.9495181655618
vn -0.3137450834444381 -0.0000010000002657517733 -0.9495072525333562
vn -0.6059719875833313 -9.999999793328674e-7 -0.7954859837000946
vn -0.981657287937304 0 -0.19065405592217907
vn 0.31374508344459495 0 0.949507252533831
vn 0.31374808603899285 0.0000010000002740187803 0.9495062603826627
vn -0.000018999999996792545 0 -1
vn -0.6059719875836341 0 -0.7954859837004922
vn -0.31374988916222396 0 -0.9495056645700921
vn 0.8438158234121498 9.99999790607909e-7 0.5366328876972372
vn 0.8438146297975078 0 0.5366347645649643
vn 0.3137168604929664 -0.0000019999991104077577 -0.9495165777586174
vn -0.000014999999998527046 -9.999999996649554e-7 -1
vn 0.3137120547007207 0 -0.949518165563699
vn 0.9816501079908434 0 -0.19069102097782525
vn 0.843792897728088 0 -0.5366689349530459
usemtl material_0_0
f 1//1 2//1 3//1
f 1//1 4//1 2//1
f 5//2 3//2 2//2
f 6//1 1//1 3//1
f 1//1 7//1 4//1
f 8//3 2//3 4//3
f 9//2 3//2 5//2
f 5//3 2//3 8//3
f 10//1 1//1 6//1
f 9//4 6//4 3//4
f 1//1 11//1 7//1
f 4//5 7//5 12//5
f 4//5 12//5 8//5
f 13//2 9//2 5//2
f 14//6 5//6 8//6
f 15//1 1//1 10//1
f 16//7 10//7 6//7
f 16//4 6//4 9//4
f 1//1 17//1 11//1
f 7//8 11//8 18//8
f 7//8 18//8 12//8
f 8//9 12//9 19//9
f 20//10 9//10 13//10
f 13//11 5//11 14//11
f 8//12 19//12 14//12
f 21//1 1//1 15//1
f 22//13 15//13 10//13
f 22//14 10//14 16//14
f 20//15 16//15 9//15
f 1//1 23//1 17//1
f 11//16 17//16 24//16
f 11//17 24//17 18//17
f 12//8 18//8 25//8
f 19//18 12//18 25//18
f 26//19 20//19 13//19
f 26//19 13//19 14//19
f 26//19 14//19 19//19
f 27//1 1//1 21//1
f 28//20 21//20 15//20
f 22//21 28//21 15//21
f 29//14 22//14 16//14
f 29//22 16//22 20//22
f 1//1 30//1 23//1
f 17//23 23//23 31//23
f 17//24 31//24 24//24
f 18//17 24//17 32//17
f 18//17 32//17 25//17
f 26//19 19//19 25//19
f 29//19 20//19 26//19
f 27//1 33//1 1//1
f 34//25 27//25 21//25
f 28//26 34//26 21//26
f 35//27 28//27 22//27
f 35//14 22//14 29//14
f 1//1 36//1 30//1
f 23//28 30//28 37//28
f 23//28 37//28 31//28
f 24//29 31//29 38//29
f 24//29 38//29 32//29
f 26//19 25//19 32//19
f 35//19 29//19 26//19
f 39//30 33//30 27//30
f 33//1 40//1 1//1
f 34//25 39//25 27//25
f 41//26 34//26 28//26
f 35//27 41//27 28//27
f 42//1 36//1 1//1
f 43//31 30//31 36//31
f 43//31 37//31 30//31
f 31//28 37//28 44//28
f 31//28 44//28 38//28
f 26//19 32//19 38//19
f 41//19 35//19 26//19
f 39//30 45//30 33//30
f 45//32 40//32 33//32
f 40//1 46//1 1//1
f 47//25 39//25 34//25
f 41//33 47//33 34//33
f 48//34 36//34 42//34
f 46//1 42//1 1//1
f 48//34 43//34 36//34
f 49//35 37//35 43//35
f 49//36 44//36 37//36
f 26//19 38//19 44//19
f 47//19 41//19 26//19
f 50//37 45//37 39//37
f 45//32 51//32 40//32
f 51//38 46//38 40//38
f 47//39 50//39 39//39
f 52//40 48//40 42//40
f 52//40 42//40 46//40
f 53//34 43//34 48//34
f 53//34 49//34 43//34
f 26//19 44//19 49//19
f 50//19 47//19 26//19
f 50//41 54//41 45//41
f 54//32 51//32 45//32
f 52//38 46//38 51//38
f 55//40 48//40 52//40
f 53//42 48//42 55//42
f 53//19 26//19 49//19
f 50//19 26//19 54//19
f 54//43 56//43 51//43
f 56//44 52//44 51//44
f 55//45 52//45 56//45
f 55//19 26//19 53//19
f 54//19 26//19 56//19
f 56//19 26//19 55//19
usemtl material_1_0
f 3//19 2//19 1//19
f 2//19 4//19 1//19
f 2//40 3//40 5//40
f 3//19 1//19 6//19
f 4//19 7//19 1//19
f 4//38 2//38 8//38
f 5//40 3//40 9//40
f 8//38 2//38 5//38
f 6//19 1//19 10//19
f 3//34 6//34 9//34
f 7//19 11//19 1//19
f 12//32 7//32 4//32
f 8//32 12//32 4//32
f 5//40 9//40 13//40
f 8//44 5//44 14//44
f 10//19 1//19 15//19
f 6//31 10//31 16//31
f 9//34 6//34 16//34
f 11//19 17//19 1//19
f 18//30 11//30 7//30
f 12//30 18//30 7//30
f 19//46 12//46 8//46
f 13//47 9//47 20//47
f 14//48 5//48 13//48
f 14//43 19//43 8//43
f 15//19 1//19 21//19
f 10//28 15//28 22//28
f 16//49 10//49 22//49
f 9//50 16//50 20//50
f 17//19 23//19 1//19
f 24//51 17//51 11//51
f 18//52 24//52 11//52
f 25//30 18//30 12//30
f 25//53 12//53 19//53
f 13//1 20//1 26//1
f 14//1 13//1 26//1
f 19//1 14//1 26//1
f 21//19 1//19 27//19
f 15//54 21//54 28//54
f 15//55 28//55 22//55
f 16//49 22//49 29//49
f 20//56 16//56 29//56
f 23//19 30//19 1//19
f 31//57 23//57 17//57
f 24//58 31//58 17//58
f 32//52 24//52 18//52
f 25//52 32//52 18//52
f 25//1 19//1 26//1
f 26//1 20//1 29//1
f 1//19 33//19 27//19
f 21//59 27//59 34//59
f 21//29 34//29 28//29
f 22//60 28//60 35//60
f 29//49 22//49 35//49
f 30//19 36//19 1//19
f 37//13 30//13 23//13
f 31//13 37//13 23//13
f 38//26 31//26 24//26
f 32//26 38//26 24//26
f 32//1 25//1 26//1
f 26//1 29//1 35//1
f 27//8 33//8 39//8
f 1//19 40//19 33//19
f 27//59 39//59 34//59
f 28//29 34//29 41//29
f 28//60 41//60 35//60
f 1//19 36//19 42//19
f 36//7 30//7 43//7
f 30//7 37//7 43//7
f 44//13 37//13 31//13
f 38//13 44//13 31//13
f 38//1 32//1 26//1
f 26//1 35//1 41//1
f 33//8 45//8 39//8
f 33//5 40//5 45//5
f 1//19 46//19 40//19
f 34//59 39//59 47//59
f 34//61 47//61 41//61
f 42//4 36//4 48//4
f 1//19 42//19 46//19
f 36//4 43//4 48//4
f 43//62 37//62 49//62
f 37//63 44//63 49//63
f 44//1 38//1 26//1
f 26//1 41//1 47//1
f 39//64 45//64 50//64
f 40//5 51//5 45//5
f 40//3 46//3 51//3
f 39//65 50//65 47//65
f 42//2 48//2 52//2
f 46//2 42//2 52//2
f 48//4 43//4 53//4
f 43//4 49//4 53//4
f 49//1 44//1 26//1
f 26//1 47//1 50//1
f 45//66 54//66 50//66
f 45//5 51//5 54//5
f 51//3 46//3 52//3
f 52//2 48//2 55//2
f 55//67 48//67 53//67
f 49//1 26//1 53//1
f 54//1 26//1 50//1
f 51//12 56//12 54//12
f 51//6 52//6 56//6
f 56//68 52//68 55//68
f 53//1 26//1 55//1
f 56//1 26//1 54//1
f 55//1 26//1 56//1
