# SSTK version 0.8.0
# 9
mtllib original-9.mtl
o mesh6/mesh6-geometry#mesh6-geometry
v -0.272629 -0.907162 -0.236467
v -0.252453 -0.907162 -0.243134
v -0.251157 -0.907162 -0.236467
v -0.256181 -0.907162 -0.248996
v -0.252452 -0.887670 -0.243134
v -0.252452 -0.907162 -0.229800
v -0.261894 -0.907162 -0.253347
v -0.256181 -0.887670 -0.248996
v -0.251157 -0.887670 -0.236467
v -0.256181 -0.907162 -0.223938
v -0.268901 -0.907162 -0.255663
v -0.261894 -0.887670 -0.253347
v -0.252452 -0.868178 -0.243134
v -0.256181 -0.868178 -0.248996
v -0.261893 -0.907162 -0.219586
v -0.252452 -0.887670 -0.229800
v -0.276358 -0.907162 -0.255662
v -0.268901 -0.887670 -0.255663
v -0.261894 -0.868178 -0.253347
v -0.251157 -0.868178 -0.236467
v -0.268900 -0.907162 -0.217271
v -0.256181 -0.887670 -0.223938
v -0.283365 -0.907162 -0.253347
v -0.276358 -0.887670 -0.255662
v -0.268901 -0.868178 -0.255663
v -0.272629 -0.868178 -0.236467
v -0.276357 -0.907162 -0.217271
v -0.261893 -0.887670 -0.219586
v -0.252452 -0.868178 -0.229800
v -0.289077 -0.907162 -0.248996
v -0.283365 -0.887670 -0.253347
v -0.276358 -0.868178 -0.255662
v -0.283364 -0.907162 -0.219586
v -0.268900 -0.887670 -0.217271
v -0.256181 -0.868178 -0.223938
v -0.292806 -0.907162 -0.243133
v -0.289077 -0.887670 -0.248996
v -0.283365 -0.868178 -0.253347
v -0.276357 -0.887670 -0.217271
v -0.289077 -0.907162 -0.223937
v -0.261893 -0.868178 -0.219586
v -0.294100 -0.907162 -0.236466
v -0.292806 -0.887670 -0.243133
v -0.289077 -0.868178 -0.248996
v -0.283364 -0.887670 -0.219586
v -0.292805 -0.907162 -0.229800
v -0.268900 -0.868178 -0.217271
v -0.294100 -0.887670 -0.236466
v -0.292806 -0.868178 -0.243133
v -0.276357 -0.868178 -0.217271
v -0.289077 -0.887670 -0.223937
v -0.292805 -0.887670 -0.229800
v -0.294100 -0.868178 -0.236466
v -0.283364 -0.868178 -0.219586
v -0.292805 -0.868178 -0.229800
v -0.289077 -0.868178 -0.223937
vn 0 -1 0
vn 0.9816499207980335 -9.999999192751675e-7 -0.1906919846144948
vn 0.84379483226162 0 -0.5366658933159296
vn 0.8437940914141254 -0.0000010000001082178536 -0.5366670581409024
vn 0.9816580729052938 -0.0000010000000743098413 0.19065001415910024
vn 0.6059419162451991 0 -0.7955088900427801
vn 0.9816499207985241 0 -0.1906919846145901
vn 0.8438158234125717 0 0.5366328876975055
vn 0.9816576985977565 0 0.19065194146338058
vn 0.3137168604935938 0 -0.9495165777605165
vn 0.6059419162439872 -0.000001999999723374419 -0.7955088900411892
vn 0.8437952850973801 0 -0.536665181325779
vn 0.6059441459762038 -0.000001000000240730449 -0.7955071916432742
vn 0.6059737352195315 0 0.7954846524126592
vn 0.8438165642055632 0 0.53663172285313
vn -0.000018999999996783044 -9.999999995969552e-7 -1
vn -0.000014999999998534545 0 -1
vn 0.3137120547000933 -0.000002000000348517256 -0.9495181655618
vn 0 1 0
vn 0.3137450834444381 0.0000010000002657517733 0.9495072525333562
vn 0.6059719875833313 9.999999793328674e-7 0.7954859837000946
vn 0.8438165642051414 -9.999994836625563e-7 0.5366317228528618
vn -0.31374508344459495 0 -0.949507252533831
vn -0.31374808603899285 -0.0000010000002740187803 -0.9495062603826627
vn 0.000018999999996792545 0 1
vn 0.31374808603914967 0 0.9495062603831373
vn 0.6059719875836341 0 0.7954859837004922
vn -0.6059737352195315 0 -0.7954846524126592
vn -0.31374808603914967 0 -0.9495062603831373
vn -0.3137168604935938 0 0.9495165777605165
vn -0.8438158234125717 0 -0.5366328876975055
vn -0.6059419162451991 0 0.7955088900427801
vn 0.31374988916222396 0 0.9495056645700921
vn -0.9816580729057844 0 -0.19065001415919555
vn -0.8438158234121498 -9.99999790607909e-7 -0.5366328876972372
vn -0.8438146297975078 0 -0.5366347645649643
vn -0.3137168604929664 0.0000019999991104077577 0.9495165777586174
vn -0.84379483226162 0 0.5366658933159296
vn 0.000014999999998527046 9.999999996649554e-7 1
vn -0.9816499207985241 0 0.1906919846145901
vn -0.3137120547007207 0 0.949518165563699
vn -0.9816501079908434 0 0.19069102097782525
vn -0.6059441459762038 0.000001000000240730449 0.7955071916432742
vn -0.8437948322611981 9.999998010898956e-7 0.5366658933156613
vn -0.843792897728088 0 0.5366689349530459
vn -0.9816499207980335 9.999999192751675e-7 0.1906919846144948
vn -0.8437940914141254 0.0000010000001082178536 0.5366670581409024
vn -0.9816580729052938 0.0000010000000743098413 -0.19065001415910024
vn -0.9816576985977565 0 -0.19065194146338058
vn -0.6059419162439872 0.000001999999723374419 0.7955088900411892
vn -0.8437952850973801 0 0.536665181325779
vn -0.8438165642055632 0 -0.53663172285313
vn 0.000018999999996783044 9.999999995969552e-7 1
vn 0.000014999999998534545 0 1
vn -0.3137120547000933 0.000002000000348517256 0.9495181655618
vn -0.3137450834444381 -0.0000010000002657517733 -0.9495072525333562
vn -0.6059719875833313 -9.999999793328674e-7 -0.7954859837000946
vn -0.8438165642051414 9.999994836625563e-7 -0.5366317228528618
vn 0.31374508344459495 0 0.949507252533831
vn 0.31374808603899285 0.0000010000002740187803 0.9495062603826627
vn -0.000018999999996792545 0 -1
vn -0.6059719875836341 0 -0.7954859837004922
vn -0.31374988916222396 0 -0.9495056645700921
vn 0.9816580729057844 0 0.19065001415919555
vn 0.8438158234121498 9.99999790607909e-7 0.5366328876972372
vn 0.8438146297975078 0 0.5366347645649643
vn 0.3137168604929664 -0.0000019999991104077577 -0.9495165777586174
vn -0.000014999999998527046 -9.999999996649554e-7 -1
vn 0.3137120547007207 0 -0.949518165563699
vn 0.9816501079908434 0 -0.19069102097782525
vn 0.8437948322611981 -9.999998010898956e-7 -0.5366658933156613
vn 0.843792897728088 0 -0.5366689349530459
usemtl material_0_0
f 1//1 2//1 3//1
f 1//1 4//1 2//1
f 5//2 3//2 2//2
f 6//1 1//1 3//1
f 1//1 7//1 4//1
f 8//3 2//3 4//3
f 9//2 3//2 5//2
f 5//4 2//4 8//4
f 10//1 1//1 6//1
f 9//5 6//5 3//5
f 1//1 11//1 7//1
f 4//6 7//6 12//6
f 4//6 12//6 8//6
f 13//7 9//7 5//7
f 14//4 5//4 8//4
f 15//1 1//1 10//1
f 16//8 10//8 6//8
f 16//9 6//9 9//9
f 1//1 17//1 11//1
f 7//10 11//10 18//10
f 7//10 18//10 12//10
f 8//11 12//11 19//11
f 20//7 9//7 13//7
f 13//12 5//12 14//12
f 8//13 19//13 14//13
f 21//1 1//1 15//1
f 22//14 15//14 10//14
f 22//15 10//15 16//15
f 20//9 16//9 9//9
f 1//1 23//1 17//1
f 11//16 17//16 24//16
f 11//17 24//17 18//17
f 12//10 18//10 25//10
f 19//18 12//18 25//18
f 26//19 20//19 13//19
f 26//19 13//19 14//19
f 26//19 14//19 19//19
f 27//1 1//1 21//1
f 28//20 21//20 15//20
f 22//21 28//21 15//21
f 29//22 22//22 16//22
f 29//5 16//5 20//5
f 1//1 30//1 23//1
f 17//23 23//23 31//23
f 17//24 31//24 24//24
f 18//17 24//17 32//17
f 18//17 32//17 25//17
f 26//19 19//19 25//19
f 29//19 20//19 26//19
f 27//1 33//1 1//1
f 34//25 27//25 21//25
f 28//26 34//26 21//26
f 35//27 28//27 22//27
f 35//8 22//8 29//8
f 1//1 36//1 30//1
f 23//28 30//28 37//28
f 23//28 37//28 31//28
f 24//29 31//29 38//29
f 24//29 38//29 32//29
f 26//19 25//19 32//19
f 35//19 29//19 26//19
f 39//30 33//30 27//30
f 33//1 40//1 1//1
f 34//25 39//25 27//25
f 41//26 34//26 28//26
f 35//27 41//27 28//27
f 42//1 36//1 1//1
f 43//31 30//31 36//31
f 43//31 37//31 30//31
f 31//28 37//28 44//28
f 31//28 44//28 38//28
f 26//19 32//19 38//19
f 41//19 35//19 26//19
f 39//30 45//30 33//30
f 45//32 40//32 33//32
f 40//1 46//1 1//1
f 47//25 39//25 34//25
f 41//33 47//33 34//33
f 48//34 36//34 42//34
f 46//1 42//1 1//1
f 48//34 43//34 36//34
f 49//35 37//35 43//35
f 49//36 44//36 37//36
f 26//19 38//19 44//19
f 47//19 41//19 26//19
f 50//37 45//37 39//37
f 45//32 51//32 40//32
f 51//38 46//38 40//38
f 47//39 50//39 39//39
f 52//40 48//40 42//40
f 52//40 42//40 46//40
f 53//34 43//34 48//34
f 53//34 49//34 43//34
f 26//19 44//19 49//19
f 50//19 47//19 26//19
f 50//41 54//41 45//41
f 54//32 51//32 45//32
f 52//38 46//38 51//38
f 55//40 48//40 52//40
f 53//42 48//42 55//42
f 53//19 26//19 49//19
f 50//19 26//19 54//19
f 54//43 56//43 51//43
f 56//44 52//44 51//44
f 55//45 52//45 56//45
f 55//19 26//19 53//19
f 54//19 26//19 56//19
f 56//19 26//19 55//19
usemtl material_1_0
f 3//19 2//19 1//19
f 2//19 4//19 1//19
f 2//46 3//46 5//46
f 3//19 1//19 6//19
f 4//19 7//19 1//19
f 4//38 2//38 8//38
f 5//46 3//46 9//46
f 8//47 2//47 5//47
f 6//19 1//19 10//19
f 3//48 6//48 9//48
f 7//19 11//19 1//19
f 12//32 7//32 4//32
f 8//32 12//32 4//32
f 5//40 9//40 13//40
f 8//47 5//47 14//47
f 10//19 1//19 15//19
f 6//31 10//31 16//31
f 9//49 6//49 16//49
f 11//19 17//19 1//19
f 18//30 11//30 7//30
f 12//30 18//30 7//30
f 19//50 12//50 8//50
f 13//40 9//40 20//40
f 14//51 5//51 13//51
f 14//43 19//43 8//43
f 15//19 1//19 21//19
f 10//28 15//28 22//28
f 16//52 10//52 22//52
f 9//49 16//49 20//49
f 17//19 23//19 1//19
f 24//53 17//53 11//53
f 18//54 24//54 11//54
f 25//30 18//30 12//30
f 25//55 12//55 19//55
f 13//1 20//1 26//1
f 14//1 13//1 26//1
f 19//1 14//1 26//1
f 21//19 1//19 27//19
f 15//56 21//56 28//56
f 15//57 28//57 22//57
f 16//58 22//58 29//58
f 20//48 16//48 29//48
f 23//19 30//19 1//19
f 31//59 23//59 17//59
f 24//60 31//60 17//60
f 32//54 24//54 18//54
f 25//54 32//54 18//54
f 25//1 19//1 26//1
f 26//1 20//1 29//1
f 1//19 33//19 27//19
f 21//61 27//61 34//61
f 21//29 34//29 28//29
f 22//62 28//62 35//62
f 29//31 22//31 35//31
f 30//19 36//19 1//19
f 37//14 30//14 23//14
f 31//14 37//14 23//14
f 38//26 31//26 24//26
f 32//26 38//26 24//26
f 32//1 25//1 26//1
f 26//1 29//1 35//1
f 27//10 33//10 39//10
f 1//19 40//19 33//19
f 27//61 39//61 34//61
f 28//29 34//29 41//29
f 28//62 41//62 35//62
f 1//19 36//19 42//19
f 36//8 30//8 43//8
f 30//8 37//8 43//8
f 44//14 37//14 31//14
f 38//14 44//14 31//14
f 38//1 32//1 26//1
f 26//1 35//1 41//1
f 33//10 45//10 39//10
f 33//6 40//6 45//6
f 1//19 46//19 40//19
f 34//61 39//61 47//61
f 34//63 47//63 41//63
f 42//64 36//64 48//64
f 1//19 42//19 46//19
f 36//64 43//64 48//64
f 43//65 37//65 49//65
f 37//66 44//66 49//66
f 44//1 38//1 26//1
f 26//1 41//1 47//1
f 39//67 45//67 50//67
f 40//6 51//6 45//6
f 40//3 46//3 51//3
f 39//68 50//68 47//68
f 42//7 48//7 52//7
f 46//7 42//7 52//7
f 48//64 43//64 53//64
f 43//64 49//64 53//64
f 49//1 44//1 26//1
f 26//1 47//1 50//1
f 45//69 54//69 50//69
f 45//6 51//6 54//6
f 51//3 46//3 52//3
f 52//7 48//7 55//7
f 55//70 48//70 53//70
f 49//1 26//1 53//1
f 54//1 26//1 50//1
f 51//13 56//13 54//13
f 51//71 52//71 56//71
f 56//72 52//72 55//72
f 53//1 26//1 55//1
f 56//1 26//1 54//1
f 55//1 26//1 56//1
