# SSTK version 0.8.0
# 6
mtllib original-6.mtl
o mesh4/mesh4-geometry#mesh4-geometry
v -0.272619 -0.907162 0.250829
v -0.252442 -0.907162 0.244163
v -0.251147 -0.907162 0.250829
v -0.256171 -0.907162 0.238300
v -0.252442 -0.887670 0.244163
v -0.252442 -0.907162 0.257496
v -0.261883 -0.907162 0.233949
v -0.256171 -0.887670 0.238300
v -0.251147 -0.887670 0.250829
v -0.256170 -0.907162 0.263358
v -0.268891 -0.907162 0.231634
v -0.261883 -0.887670 0.233949
v -0.252442 -0.868178 0.244163
v -0.256171 -0.868178 0.238300
v -0.261883 -0.907162 0.267710
v -0.252442 -0.887670 0.257496
v -0.276348 -0.907162 0.231634
v -0.268891 -0.887670 0.231634
v -0.261883 -0.868178 0.233949
v -0.251147 -0.868178 0.250829
v -0.268890 -0.907162 0.270025
v -0.256170 -0.887670 0.263358
v -0.283355 -0.907162 0.233949
v -0.276348 -0.887670 0.231634
v -0.268891 -0.868178 0.231634
v -0.272619 -0.868178 0.250829
v -0.276347 -0.907162 0.270025
v -0.261883 -0.887670 0.267710
v -0.252442 -0.868178 0.257496
v -0.289067 -0.907162 0.238301
v -0.283355 -0.887670 0.233949
v -0.276348 -0.868178 0.231634
v -0.283354 -0.907162 0.267710
v -0.268890 -0.887670 0.270025
v -0.256170 -0.868178 0.263358
v -0.292796 -0.907162 0.244163
v -0.289067 -0.887670 0.238301
v -0.283355 -0.868178 0.233949
v -0.276347 -0.887670 0.270025
v -0.289067 -0.907162 0.263359
v -0.261883 -0.868178 0.267710
v -0.294090 -0.907162 0.250830
v -0.292796 -0.887670 0.244163
v -0.289067 -0.868178 0.238301
v -0.283354 -0.887670 0.267710
v -0.292795 -0.907162 0.257496
v -0.268890 -0.868178 0.270025
v -0.294090 -0.887670 0.250830
v -0.292796 -0.868178 0.244163
v -0.276347 -0.868178 0.270025
v -0.289067 -0.887670 0.263359
v -0.292795 -0.887670 0.257496
v -0.294090 -0.868178 0.250830
v -0.283354 -0.868178 0.267710
v -0.292795 -0.868178 0.257496
v -0.289067 -0.868178 0.263359
vn 0 -1 0
vn 0.9816499207980335 -9.999999192751675e-7 -0.1906919846144948
vn 0.84379483226162 0 -0.5366658933159296
vn 0.8437948322611981 -9.999998010898956e-7 -0.5366658933156613
vn 0.9816580729052938 -0.0000010000000743098413 0.19065001415910024
vn 0.6059436639437371 0 -0.7955075588116304
vn 0.6059419162448961 -9.9999986160039e-7 -0.7955088900423823
vn 0.9816499207985241 0 -0.1906919846145901
vn 0.843815082617517 0 0.5366340525415743
vn 0.9816576985977565 0 0.19065194146338058
vn 0.3137150573292357 0 -0.9495171735176327
vn 0.8437940914145473 0 -0.5366670581411708
vn 0.6059441459765068 0 -0.795507191643672
vn 0.6059748500569959 -9.999997527357247e-7 0.7954838031647165
vn 0.8438170170235867 -0.0000010000000202936566 0.5366310108262622
vn -0.000016999999997765547 0 -1
vn 0.31371385786883155 0 -0.9495175698116674
vn 0 1 0
vn 0.3137450834444381 0.0000010000002657517733 0.9495072525333562
vn 0.6059702399430537 0.0000010000003957886014 0.7954873149851969
vn 0.8438170170240087 0 0.5366310108265305
vn -0.31374808603899285 -0.0000010000002740187803 -0.9495062603826627
vn -0.3137468865714226 0 -0.94950665672587
vn -0.000016999999997757043 -9.999999996329554e-7 -1
vn -0.000014999999998534545 0 -1
vn 0.000018999999996792545 0 1
vn 0.31374808603914967 0 0.9495062603831373
vn 0.8438162762317416 0 0.5366321756719376
vn -0.6059737352192284 -9.999995628726532e-7 -0.7954846524122615
vn -0.3137168604935938 0 0.9495165777605165
vn 0.6059719875836341 0 0.7954859837004922
vn -0.843815082617517 0 -0.5366340525415743
vn -0.6059737352195315 0 -0.7954846524126592
vn -0.6059419162451991 0 0.7955088900427801
vn 0.31374988916222396 0 0.9495056645700921
vn -0.9816580729057844 0 -0.19065001415919555
vn -0.3137168604929664 0.0000019999991104077577 0.9495165777586174
vn -0.84379483226162 0 0.5366658933159296
vn 0.000014999999998527046 9.999999996649554e-7 1
vn -0.9816499207985241 0 0.1906919846145901
vn -0.3137120547007207 0 0.949518165563699
vn -0.6059441459762038 0.000001000000240730449 0.7955071916432742
vn -0.8437948322611981 9.999998010898956e-7 0.5366658933156613
vn -0.843792897728088 0 0.5366689349530459
vn -0.9816499207980335 9.999999192751675e-7 0.1906919846144948
vn -0.9816580729052938 0.0000010000000743098413 -0.19065001415910024
vn -0.6059436639437371 0 0.7955075588116304
vn -0.6059419162448961 9.9999986160039e-7 0.7955088900423823
vn -0.9816576985977565 0 -0.19065194146338058
vn -0.3137150573292357 0 0.9495171735176327
vn -0.8437940914145473 0 0.5366670581411708
vn -0.6059441459765068 0 0.795507191643672
vn -0.6059748500569959 9.999997527357247e-7 -0.7954838031647165
vn -0.8438170170235867 0.0000010000000202936566 -0.5366310108262622
vn 0.000016999999997765547 0 1
vn -0.31371385786883155 0 0.9495175698116674
vn -0.3137450834444381 -0.0000010000002657517733 -0.9495072525333562
vn -0.6059702399430537 -0.0000010000003957886014 -0.7954873149851969
vn -0.8438170170240087 0 -0.5366310108265305
vn 0.31374808603899285 0.0000010000002740187803 0.9495062603826627
vn 0.3137468865714226 0 0.94950665672587
vn 0.000016999999997757043 9.999999996329554e-7 1
vn 0.000014999999998534545 0 1
vn -0.000018999999996792545 0 -1
vn -0.31374808603914967 0 -0.9495062603831373
vn -0.8438162762317416 0 -0.5366321756719376
vn 0.6059737352192284 9.999995628726532e-7 0.7954846524122615
vn 0.3137168604935938 0 -0.9495165777605165
vn -0.6059719875836341 0 -0.7954859837004922
vn 0.6059737352195315 0 0.7954846524126592
vn 0.6059419162451991 0 -0.7955088900427801
vn -0.31374988916222396 0 -0.9495056645700921
vn 0.9816580729057844 0 0.19065001415919555
vn 0.3137168604929664 -0.0000019999991104077577 -0.9495165777586174
vn -0.000014999999998527046 -9.999999996649554e-7 -1
vn 0.3137120547007207 0 -0.949518165563699
vn 0.6059441459762038 -0.000001000000240730449 -0.7955071916432742
vn 0.843792897728088 0 -0.5366689349530459
usemtl material_0_0
f 1//1 2//1 3//1
f 1//1 4//1 2//1
f 5//2 3//2 2//2
f 6//1 1//1 3//1
f 1//1 7//1 4//1
f 8//3 2//3 4//3
f 9//2 3//2 5//2
f 5//4 2//4 8//4
f 10//1 1//1 6//1
f 9//5 6//5 3//5
f 1//1 11//1 7//1
f 4//6 7//6 12//6
f 4//7 12//7 8//7
f 13//8 9//8 5//8
f 14//3 5//3 8//3
f 15//1 1//1 10//1
f 16//9 10//9 6//9
f 16//10 6//10 9//10
f 1//1 17//1 11//1
f 7//11 11//11 18//11
f 7//11 18//11 12//11
f 8//7 12//7 19//7
f 20//8 9//8 13//8
f 13//12 5//12 14//12
f 8//13 19//13 14//13
f 21//1 1//1 15//1
f 22//14 15//14 10//14
f 22//15 10//15 16//15
f 20//10 16//10 9//10
f 1//1 23//1 17//1
f 11//16 17//16 24//16
f 11//16 24//16 18//16
f 12//11 18//11 25//11
f 19//17 12//17 25//17
f 26//18 20//18 13//18
f 26//18 13//18 14//18
f 26//18 14//18 19//18
f 27//1 1//1 21//1
f 28//19 21//19 15//19
f 22//20 28//20 15//20
f 29//21 22//21 16//21
f 29//5 16//5 20//5
f 1//1 30//1 23//1
f 17//22 23//22 31//22
f 17//23 31//23 24//23
f 18//24 24//24 32//24
f 18//25 32//25 25//25
f 26//18 19//18 25//18
f 29//18 20//18 26//18
f 27//1 33//1 1//1
f 34//26 27//26 21//26
f 28//27 34//27 21//27
f 35//20 28//20 22//20
f 35//28 22//28 29//28
f 1//1 36//1 30//1
f 23//29 30//29 37//29
f 23//29 37//29 31//29
f 24//23 31//23 38//23
f 24//22 38//22 32//22
f 26//18 25//18 32//18
f 35//18 29//18 26//18
f 39//30 33//30 27//30
f 33//1 40//1 1//1
f 34//26 39//26 27//26
f 41//27 34//27 28//27
f 35//31 41//31 28//31
f 42//1 36//1 1//1
f 43//32 30//32 36//32
f 43//32 37//32 30//32
f 31//33 37//33 44//33
f 31//33 44//33 38//33
f 26//18 32//18 38//18
f 41//18 35//18 26//18
f 39//30 45//30 33//30
f 45//34 40//34 33//34
f 40//1 46//1 1//1
f 47//26 39//26 34//26
f 41//35 47//35 34//35
f 48//36 36//36 42//36
f 46//1 42//1 1//1
f 48//36 43//36 36//36
f 49//32 37//32 43//32
f 49//32 44//32 37//32
f 26//18 38//18 44//18
f 47//18 41//18 26//18
f 50//37 45//37 39//37
f 45//34 51//34 40//34
f 51//38 46//38 40//38
f 47//39 50//39 39//39
f 52//40 48//40 42//40
f 52//40 42//40 46//40
f 53//36 43//36 48//36
f 53//36 49//36 43//36
f 26//18 44//18 49//18
f 50//18 47//18 26//18
f 50//41 54//41 45//41
f 54//34 51//34 45//34
f 52//38 46//38 51//38
f 55//40 48//40 52//40
f 53//40 48//40 55//40
f 53//18 26//18 49//18
f 50//18 26//18 54//18
f 54//42 56//42 51//42
f 56//43 52//43 51//43
f 55//44 52//44 56//44
f 55//18 26//18 53//18
f 54//18 26//18 56//18
f 56//18 26//18 55//18
usemtl material_1_0
f 3//18 2//18 1//18
f 2//18 4//18 1//18
f 2//45 3//45 5//45
f 3//18 1//18 6//18
f 4//18 7//18 1//18
f 4//38 2//38 8//38
f 5//45 3//45 9//45
f 8//43 2//43 5//43
f 6//18 1//18 10//18
f 3//46 6//46 9//46
f 7//18 11//18 1//18
f 12//47 7//47 4//47
f 8//48 12//48 4//48
f 5//40 9//40 13//40
f 8//38 5//38 14//38
f 10//18 1//18 15//18
f 6//32 10//32 16//32
f 9//49 6//49 16//49
f 11//18 17//18 1//18
f 18//50 11//50 7//50
f 12//50 18//50 7//50
f 19//48 12//48 8//48
f 13//40 9//40 20//40
f 14//51 5//51 13//51
f 14//52 19//52 8//52
f 15//18 1//18 21//18
f 10//53 15//53 22//53
f 16//54 10//54 22//54
f 9//49 16//49 20//49
f 17//18 23//18 1//18
f 24//55 17//55 11//55
f 18//55 24//55 11//55
f 25//50 18//50 12//50
f 25//56 12//56 19//56
f 13//1 20//1 26//1
f 14//1 13//1 26//1
f 19//1 14//1 26//1
f 21//18 1//18 27//18
f 15//57 21//57 28//57
f 15//58 28//58 22//58
f 16//59 22//59 29//59
f 20//46 16//46 29//46
f 23//18 30//18 1//18
f 31//60 23//60 17//60
f 24//61 31//61 17//61
f 32//62 24//62 18//62
f 25//63 32//63 18//63
f 25//1 19//1 26//1
f 26//1 20//1 29//1
f 1//18 33//18 27//18
f 21//64 27//64 34//64
f 21//65 34//65 28//65
f 22//58 28//58 35//58
f 29//66 22//66 35//66
f 30//18 36//18 1//18
f 37//67 30//67 23//67
f 31//67 37//67 23//67
f 38//61 31//61 24//61
f 32//60 38//60 24//60
f 32//1 25//1 26//1
f 26//1 29//1 35//1
f 27//68 33//68 39//68
f 1//18 40//18 33//18
f 27//64 39//64 34//64
f 28//65 34//65 41//65
f 28//69 41//69 35//69
f 1//18 36//18 42//18
f 36//9 30//9 43//9
f 30//9 37//9 43//9
f 44//70 37//70 31//70
f 38//70 44//70 31//70
f 38//1 32//1 26//1
f 26//1 35//1 41//1
f 33//68 45//68 39//68
f 33//71 40//71 45//71
f 1//18 46//18 40//18
f 34//64 39//64 47//64
f 34//72 47//72 41//72
f 42//73 36//73 48//73
f 1//18 42//18 46//18
f 36//73 43//73 48//73
f 43//9 37//9 49//9
f 37//9 44//9 49//9
f 44//1 38//1 26//1
f 26//1 41//1 47//1
f 39//74 45//74 50//74
f 40//71 51//71 45//71
f 40//3 46//3 51//3
f 39//75 50//75 47//75
f 42//8 48//8 52//8
f 46//8 42//8 52//8
f 48//73 43//73 53//73
f 43//73 49//73 53//73
f 49//1 44//1 26//1
f 26//1 47//1 50//1
f 45//76 54//76 50//76
f 45//71 51//71 54//71
f 51//3 46//3 52//3
f 52//8 48//8 55//8
f 55//8 48//8 53//8
f 49//1 26//1 53//1
f 54//1 26//1 50//1
f 51//77 56//77 54//77
f 51//4 52//4 56//4
f 56//78 52//78 55//78
f 53//1 26//1 55//1
f 56//1 26//1 54//1
f 55//1 26//1 56//1
